<?xml version="1.0" encoding="UTF-8"?>
<svg width="108px" height="108px" viewBox="0 0 108 108" version="1.1" xmlns="http://www.w3.org/2000/svg" xmlns:xlink="http://www.w3.org/1999/xlink">
    <!-- Generator: Sketch 63.1 (92452) - https://sketch.com -->
    <title>Android/Adaptive App Icon/App Icon Back</title>
    <desc>Created with Sketch.</desc>
    <defs>
        <linearGradient x1="2.34574298%" y1="97.654257%" x2="100%" y2="0%" id="linearGradient-1">
            <stop stop-color="#5104F8" offset="0%"></stop>
            <stop stop-color="#00C2CC" offset="100%"></stop>
        </linearGradient>
    </defs>
    <g id="3-Review" stroke="none" stroke-width="1" fill="none" fill-rule="evenodd">
        <g id="No-Mask">
            <g id="Icon">
                <g id="Android/Adaptive-App-Icon/App-Icon-Back">
                    <g id="Android---Adaptive-App-Icon-Back">
                        <rect id="Base" fill="url(#linearGradient-1)" x="0" y="0" width="108" height="108"></rect>
                        <g id="tracery-icon" stroke-width="1" transform="translate(29.000000, 29.000000)" fill="#FFFFFF">
                            <g id="bird-feather-svgrepo-com" transform="translate(25.212737, 25.278666) rotate(2.000000) translate(-25.212737, -25.278666) translate(5.768292, 4.723111)" fill-rule="nonzero">
                                <path d="M38.0655378,0.280411687 C35.2416335,-2.5436255 11.5424303,16.8913679 11.5424303,16.8913679 C10.5250996,17.647676 9.78718459,18.7471448 9.54282869,19.8693891 L7.97264276,27.0889774 C7.837251,27.7142762 7.86361222,28.3085657 8.03824701,28.8205843 C13.6344622,23.1746348 19.5972112,17.7944887 26.1480744,13.4168659 C22.5466135,16.3037185 6.16361222,31.5183931 0.866666667,37.7171979 L0.0338645418,40.6375166 L3.00491368,39.5331341 C5.38950863,36.485259 7.84515272,33.4312085 10.4047809,30.4572377 C10.6787517,30.4634794 10.9643426,30.436919 11.2573041,30.3733732 L18.4767596,28.8035193 C19.5992032,28.5590969 20.69834,27.8211155 21.4548473,26.8039177 C21.4548473,26.8040505 40.8898406,3.10471448 38.0655378,0.280411687 Z" id="Path"></path>
                            </g>
                            <path d="M50,25 C50,38.8071187 38.8071187,50 25,50 C20.7014652,50 16.6563147,48.9151325 13.1234121,47.0042611 L16.0890535,44.0387609 C18.7944378,45.3071815 21.8144496,46.0159363 25,46.0159363 C36.6067811,46.0159363 46.0159363,36.6067811 46.0159363,25 C46.0159363,21.8144496 45.3071815,18.7944378 44.0387609,16.0890535 L47.0042611,13.1234121 C48.9151325,16.6563147 50,20.7014652 50,25 Z M25,0 C29.3160483,0 33.3766433,1.09372558 36.9197446,3.01913628 L33.9560238,5.98243911 C31.2391252,4.70071837 28.2032544,3.98406375 25,3.98406375 C13.3932189,3.98406375 3.98406375,13.3932189 3.98406375,25 C3.98406375,28.2032544 4.70071837,31.2391252 5.98243911,33.9560238 L3.01913628,36.9197446 C1.09372558,33.3766433 0,29.3160483 0,25 C0,11.1928813 11.1928813,0 25,0 Z" id="Combined-Shape" fill-rule="nonzero"></path>
                        </g>
                    </g>
                </g>
            </g>
        </g>
    </g>
</svg>